<svg xmlns="http://www.w3.org/2000/svg" width="676" height="676" viewBox="-21 0 507 507.015"><path d="M234.86 244c67.378 0 122-54.621 122-122S302.237 0 234.86 0s-122 54.621-122 122c.074 67.348 54.652 121.926 122 122zm-57.243-30.46v-36.278c0-.235-.015-.473-.039-.707a23.29 23.29 0 0 1 5.895-17.953 23.264 23.264 0 0 1 17.27-7.668h3.734l2.918 6.609a30.139 30.139 0 0 0 27.222 18.5 30.143 30.143 0 0 0 27.914-17.445l3.559-7.664h2.89a23.263 23.263 0 0 1 17.266 7.668 23.272 23.272 0 0 1 5.89 17.953c-.023.234-.038.472-.038.707v36.281c-35.004 21.945-79.477 21.945-114.48 0zM234.86 14c44.957-.023 85.223 27.82 101.075 69.89 15.847 42.07 3.964 89.563-29.832 119.212v-25.5a37.269 37.269 0 0 0-9.594-28.52 37.26 37.26 0 0 0-27.528-12.148h-7.359a7.001 7.001 0 0 0-6.348 4.054l-5.437 11.719a16.134 16.134 0 0 1-29.54-.602c-.019-.046-.042-.093-.062-.14l-4.789-10.86a6.994 6.994 0 0 0-6.398-4.171h-8.3a37.285 37.285 0 0 0-27.536 12.144 37.269 37.269 0 0 0-9.594 28.52v25.5c-33.797-29.645-45.68-77.137-29.832-119.207C149.637 41.82 189.902 13.977 234.86 14zm0 0"/><path d="M233.84 138.168c19.95-.023 36.117-16.191 36.14-36.145V79.98a36.132 36.132 0 0 0-15.71-29.793 21.713 21.713 0 0 0-6.961-25.23 21.71 21.71 0 0 0-26.172-.207 21.718 21.718 0 0 0-7.356 25.121 35.984 35.984 0 0 0-15.906 26.508c-.04.402-.098 1.016-.176 25.64.02 19.954 16.188 36.126 36.14 36.149zm0-14c-12.215-.012-22.117-9.906-22.14-22.121 0-1.5.007-3.156.015-4.887a28.513 28.513 0 0 0 14.992-10.726 82.651 82.651 0 0 0 29.277 8.691v6.902c-.015 12.223-9.922 22.125-22.144 22.141zm-22.012-46.602c.05-.492.14-.976.227-1.457a64.978 64.978 0 0 0 2.96 2.598 13.693 13.693 0 0 1-3.23 3.031c.016-2.093.031-3.62.043-4.175zm44.152 3.442c-20.367-2.754-31.699-12.028-36.828-17.63a22.175 22.175 0 0 1 23.774-3.573 22.166 22.166 0 0 1 13.054 20.18zm-29.609-38.801a7.71 7.71 0 1 1 15.024 2.434 36.123 36.123 0 0 0-7.555-.801c-2.383 0-4.762.238-7.102.7a7.863 7.863 0 0 1-.367-2.333zM39.648 397.359H25.191a7.001 7.001 0 0 0 0 14h14.457a7.001 7.001 0 0 0 0-14zm64.891 0H90.082a7.001 7.001 0 0 0 0 14h14.457a7.001 7.001 0 0 0 0-14zm-30.3 0H55.491a7.001 7.001 0 0 0 0 14h18.746a7.001 7.001 0 0 0 0-14zm-34.59 26.114H25.19a7.001 7.001 0 0 0 0 14h14.457a7.001 7.001 0 0 0 0-14zm64.89 0H90.082a7.001 7.001 0 0 0 0 14h14.457a7.001 7.001 0 0 0 0-14zm-30.3 0H55.491a7.001 7.001 0 0 0 0 14h18.746a7.001 7.001 0 0 0 0-14zm130.41-26.114H190.19a7.001 7.001 0 0 0 0 14h14.457a7.001 7.001 0 0 0 0-14zm64.89 0h-14.457a7.001 7.001 0 0 0 0 14h14.457a7.001 7.001 0 0 0 0-14zm-30.3 0h-18.747a7.001 7.001 0 0 0 0 14h18.746a7.001 7.001 0 0 0 0-14zm-34.59 26.114H190.19a7.001 7.001 0 0 0 0 14h14.457a7.001 7.001 0 0 0 0-14zm64.89 0h-14.457a7.001 7.001 0 0 0 0 14h14.457a7.001 7.001 0 0 0 0-14zm-30.3 0h-18.747a7.001 7.001 0 0 0 0 14h18.746a7.001 7.001 0 0 0 0-14zm0 0"/><path d="M457.008 372.785h-9.363v-17.168c0-3.867-3.137-7-7-7h-37.122v-26.476c0-3.864-3.132-7-7-7H237.95v-36.133l17.91 17.898a6.997 6.997 0 0 0 9.899 0 6.997 6.997 0 0 0 0-9.898l-30-30a6.997 6.997 0 0 0-9.899 0l-30 30c-2.734 2.734-2.734 7.164 0 9.898s7.164 2.735 9.899 0l18.191-18.191v36.422H73.191c-3.867 0-7 3.133-7 7v26.472h-42.82c-3.867 0-7 3.137-7 7v17.176H7.008c-3.867 0-7 3.137-7 7v120.23c0 3.868 3.133 7 7 7h120c3.867 0 7-3.132 7-7v-120.23c0-3.863-3.133-7-7-7h-9.363v-17.168c0-3.867-3.137-7-7-7H80.19v-19.476H223.95v19.476h-35.578c-3.867 0-7 3.133-7 7v17.168h-9.363c-3.867 0-7 3.137-7 7v120.23c0 3.868 3.133 7 7 7h120c3.867 0 7-3.132 7-7v-120.23c0-3.863-3.133-7-7-7h-9.363v-17.168c0-3.867-3.137-7-7-7h-37.696v-19.476h151.574v19.476h-36.152c-3.867 0-7 3.133-7 7v17.168h-9.363c-3.867 0-7 3.137-7 7v120.23c0 3.868 3.133 7 7 7h120c3.867 0 7-3.132 7-7v-120.23c0-3.863-3.133-7-7-7zM82.836 493.015H49.16v-26.12h33.676zm37.172 0H96.836v-33.12c0-3.868-3.133-7-7-7H42.16c-3.867 0-7 3.132-7 7v33.12H14.008v-106.23h106zm-16.363-120.23H30.37v-10.168h73.274zm144.19 120.23H214.16v-26.12h33.676zm37.173 0h-23.172v-33.12c0-3.868-3.133-7-7-7H207.16c-3.867 0-7 3.132-7 7v33.12h-21.152v-106.23h106zm-16.363-120.23H195.37v-10.168h73.274zm91.726-10.168h73.274v10.168H360.37zm52.465 130.399H379.16v-26.121h33.676zm37.172 0h-23.172v-33.121c0-3.864-3.133-7-7-7H372.16c-3.867 0-7 3.136-7 7v33.12h-21.152v-106.23h106zm0 0"/><path d="M369.648 397.36h-14.457a7.001 7.001 0 0 0 0 14h14.457a7.001 7.001 0 0 0 0-14zm64.891 0h-14.457a7.001 7.001 0 0 0 0 14h14.457a7.001 7.001 0 0 0 0-14zm-30.3 0h-18.747a7.001 7.001 0 0 0 0 14h18.746a7.001 7.001 0 0 0 0-14zm-34.59 26.113H355.19a7.001 7.001 0 0 0 0 14h14.457a7.001 7.001 0 0 0 0-14zm64.89 0h-14.457a7.001 7.001 0 0 0 0 14h14.457a7.001 7.001 0 0 0 0-14zm-30.3 0h-18.747a7.001 7.001 0 0 0 0 14h18.746a7.001 7.001 0 0 0 0-14zm0 0"/></svg>