<svg xmlns="http://www.w3.org/2000/svg" data-name="Layer 1" viewBox="0 0 128 128"><path d="M87.519 74.012A33.022 33.022 0 0 1 83.459 78h3.563C101.898 78 114 89.122 114 102.793v19.258a1.977 1.977 0 0 1-2 1.949H16a1.977 1.977 0 0 1-2-1.95v-19.257C14 89.123 26.102 78 40.978 78h4.175a32.844 32.844 0 0 1-4.061-4h-.114C23.896 74 10 86.916 10 102.793v19.258A5.982 5.982 0 0 0 16 128h96a5.982 5.982 0 0 0 6-5.95v-19.257c0-15.722-13.629-28.533-30.481-28.781Z"/><path d="M91.865 53.65a11.33 11.33 0 0 1-2.868.349H39.006a11.601 11.601 0 0 1-2.363-.241 38.573 38.573 0 0 0 2.48 9.516c4.491 10.768 14.38 17.725 25.19 17.725 14.347 0 26.178-12.02 27.552-27.35Z"/><path d="M94.03 57.11a4.235 4.235 0 0 0 1.081 3.337A4.806 4.806 0 0 0 98.683 62h2.634a4.806 4.806 0 0 0 3.572-1.553 4.235 4.235 0 0 0 1.082-3.336c-.252-2.103-1.208-8.122-3.971-10.162V20.517a3.176 3.176 0 0 0 .082-5.866L67.693.34a4.39 4.39 0 0 0-3.379-.002L29.856 14.678a3.178 3.178 0 0 0 .2 5.863L34 21.99l.005 23.302c0 3.26 1.683 4.913 5 4.913h49.991c3.318 0 5-1.653 5-4.913L94 23.459 98 21.99v24.96c-2.763 2.04-3.72 8.06-3.97 10.162Zm-4.033-11.817a2.87 2.87 0 0 1-.095.882 3.004 3.004 0 0 1-.905.094H39.006a3 3 0 0 1-.905-.094 2.848 2.848 0 0 1-.095-.883v-2.96h51.991Zm0-6.897H38.005l-.003-14.936 26.513 9.742a4.419 4.419 0 0 0 2.99-.006L90 24.929ZM100 50.564a19.064 19.064 0 0 1 1.998 7.006.31.31 0 0 1-.099.26.786.786 0 0 1-.582.233h-2.634a.786.786 0 0 1-.582-.232.31.31 0 0 1-.099-.26A19.064 19.064 0 0 1 100 50.563Z"/><circle cx="64" cy="87" r="2"/><circle cx="64" cy="95" r="2"/><circle cx="64" cy="103" r="2"/></svg>